<?xml version="1.0" encoding="utf-8"?>
<!-- Generator: Adobe Illustrator 16.0.0, SVG Export Plug-In . SVG Version: 6.00 Build 0)  -->
<!DOCTYPE svg PUBLIC "-//W3C//DTD SVG 1.1//EN" "http://www.w3.org/Graphics/SVG/1.1/DTD/svg11.dtd">
<svg version="1.1" id="Layer_1" xmlns="http://www.w3.org/2000/svg" xmlns:xlink="http://www.w3.org/1999/xlink" x="0px" y="0px"
	 width="30px" height="22.893px" viewBox="0 0 30 22.893" enable-background="new 0 0 30 22.893" xml:space="preserve">
<g>
	<path d="M30,14.746c0-2.682-1.877-5.024-4.673-6.291c0.164,0.585,0.259,1.189,0.276,1.809c0.28,0.166,0.549,0.345,0.802,0.54
		c1.41,1.088,2.187,2.487,2.187,3.942c0,1.454-0.776,2.854-2.187,3.941c-1.547,1.193-3.627,1.85-5.856,1.85
		c-1.504,0-2.938-0.3-4.188-0.859c-0.778,0.153-1.585,0.25-2.415,0.284c1.704,1.282,4.033,2.073,6.603,2.073
		c1.648,0,3.198-0.325,4.548-0.898l3.44,1.756l-0.695-3.511C29.191,18.122,30,16.507,30,14.746z"/>
	<path d="M24.625,9.283c-0.018-0.619-0.113-1.224-0.277-1.808C23.146,3.201,18.215,0,12.314,0C5.513,0,0,4.252,0,9.497
		c0,2.295,1.055,4.399,2.812,6.041l-0.906,4.573l4.483-2.287c1.758,0.746,3.777,1.17,5.925,1.17c0.219,0,0.437-0.004,0.653-0.013
		c0.829-0.033,1.637-0.13,2.414-0.284c5.316-1.051,9.246-4.771,9.246-9.2C24.627,9.426,24.626,9.354,24.625,9.283z M6.506,11.061
		c-0.99,0-1.792-0.802-1.792-1.791c0-0.99,0.802-1.792,1.792-1.792c0.989,0,1.792,0.802,1.792,1.792
		C8.298,10.259,7.496,11.061,6.506,11.061z M12.314,11.061c-0.99,0-1.792-0.802-1.792-1.791c0-0.99,0.802-1.792,1.792-1.792
		c0.989,0,1.792,0.802,1.792,1.792C14.106,10.259,13.303,11.061,12.314,11.061z M18.122,11.061c-0.989,0-1.792-0.802-1.792-1.791
		c0-0.99,0.803-1.792,1.792-1.792s1.792,0.802,1.792,1.792C19.914,10.259,19.111,11.061,18.122,11.061z"/>
</g>
</svg>
