<?xml version="1.0" encoding="UTF-8" standalone="no"?>
<!-- Created with Inkscape (http://www.inkscape.org/) -->

<svg
   xmlns:dc="http://purl.org/dc/elements/1.1/"
   xmlns:cc="http://creativecommons.org/ns#"
   xmlns:rdf="http://www.w3.org/1999/02/22-rdf-syntax-ns#"
   xmlns:svg="http://www.w3.org/2000/svg"
   xmlns="http://www.w3.org/2000/svg"
   xmlns:sodipodi="http://sodipodi.sourceforge.net/DTD/sodipodi-0.dtd"
   xmlns:inkscape="http://www.inkscape.org/namespaces/inkscape"
   width="400"
   height="400"
   id="svg2"
   version="1.1"
   inkscape:version="0.48.2 r9819"
   sodipodi:docname="Logoverdana.svg"
   inkscape:export-filename="/Users/alex/Desktop/logo idea.png"
   inkscape:export-xdpi="90"
   inkscape:export-ydpi="90">
  <defs
     id="defs4" />
  <sodipodi:namedview
     id="base"
     pagecolor="#ffffff"
     bordercolor="#666666"
     borderopacity="1.0"
     inkscape:pageopacity="0.0"
     inkscape:pageshadow="2"
     inkscape:zoom="1.345"
     inkscape:cx="200"
     inkscape:cy="200"
     inkscape:document-units="px"
     inkscape:current-layer="layer1"
     showgrid="false"
     showguides="true"
     inkscape:guide-bbox="true"
     inkscape:window-width="1228"
     inkscape:window-height="756"
     inkscape:window-x="0"
     inkscape:window-y="0"
     inkscape:window-maximized="0" />
  <metadata
     id="metadata7">
    <rdf:RDF>
      <cc:Work
         rdf:about="">
        <dc:format>image/svg+xml</dc:format>
        <dc:type
           rdf:resource="http://purl.org/dc/dcmitype/StillImage" />
        <dc:title />
      </cc:Work>
    </rdf:RDF>
  </metadata>
  <g
     inkscape:label="Layer 1"
     inkscape:groupmode="layer"
     id="layer1"
     transform="translate(0,-652.36218)">
    <rect
       style="fill:#ffffff;fill-opacity:1;stroke:#ffffff;stroke-width:0.94536823;stroke-opacity:1"
       id="rect2997"
       width="398.08456"
       height="326.28482"
       x="0.9577179"
       y="689.21979" />
    <g
       id="g3927"
       transform="matrix(0.91635681,0,0,0.91635681,-140.74158,647.71395)">
      <path
         id="path3760-0"
         d="m 428.53125,62.28125 c -49.27983,0 -93.39627,22.131055 -122.9375,57 l 89.78125,0 27.125,0 c 0.44379,-0.005 0.89864,-0.0312 1.34375,-0.0312 0.45029,0 0.89482,0.0252 1.34375,0.0312 l 2.8125,0 0.0625,0.0937 c 55.67048,2.21767 100.125,47.88303 100.125,103.9375 0,56.06502 -44.47102,101.76709 -100.15625,103.96875 l -0.0312,0.0625 -1.46875,0 c -0.8951,0.0222 -1.78694,0.0312 -2.6875,0.0312 -0.90056,0 -1.82365,-0.009 -2.71875,-0.0312 l -25.75,0 -89.78125,0 c 29.54126,34.87459 73.65306,57.03125 122.9375,57.03125 88.9438,0 161.03125,-72.1187 161.03125,-161.0625 0,-88.9438 -72.08745,-161.03125 -161.03125,-161.03125 z"
         style="fill:#333333;fill-opacity:1"
         inkscape:connector-curvature="0" />
      <path
         id="path2987"
         d="m 247.3125,62.78125 -33.25,57.59375 -59.4375,102.9375 59.46875,103.03125 33.21875,57.53125 185.375,0 33.21875,-57.53125 0.0312,-0.0312 6.1875,-10.75 c -13.27565,6.9232 -28.22831,11.09147 -44.09375,11.71875 l -0.0312,0.0625 -1.46875,0 c -0.8951,0.0222 -1.78694,0.0312 -2.6875,0.0312 -0.90056,0 -1.82365,-0.009 -2.71875,-0.0312 l -25.75,0 -120.125,0 -60.0625,-104.03125 60.0625,-104.03125 120.125,0 27.125,0 c 0.44379,-0.005 0.89864,-0.0312 1.34375,-0.0312 0.45029,0 0.89482,0.0252 1.34375,0.0312 l 2.8125,0 0.0625,0.0937 c 15.85499,0.63159 30.79482,4.80262 44.0625,11.71875 l -6.1875,-10.6875 -33.25,-57.625 -185.375,0 z"
         style="fill:#dd4814;fill-opacity:1;fill-rule:evenodd;stroke:#000000;stroke-width:1px;stroke-linecap:butt;stroke-linejoin:miter;stroke-opacity:1"
         inkscape:connector-curvature="0" />
    </g>
    <text
       xml:space="preserve"
       style="font-size:40px;font-style:normal;font-variant:normal;font-weight:normal;font-stretch:normal;line-height:125%;letter-spacing:0px;word-spacing:0px;fill:#000000;fill-opacity:1;stroke:none;font-family:helvetica;-inkscape-font-specification:helvetica"
       x="81.083984"
       y="840.90027"
       id="text3933"
       sodipodi:linespacing="125%"><tspan
         sodipodi:role="line"
         x="81.083984"
         y="840.90027"
         id="tspan3937"
         style="font-size:44px;font-style:normal;font-variant:normal;font-weight:normal;font-stretch:normal;fill:#404040;fill-opacity:1;font-family:Verdana;-inkscape-font-specification:Verdana">CORSO</tspan><tspan
         sodipodi:role="line"
         x="81.083984"
         y="895.90027"
         style="font-size:44px;font-style:normal;font-variant:normal;font-weight:normal;font-stretch:normal;fill:#404040;fill-opacity:1;font-family:Verdana;-inkscape-font-specification:Verdana"
         id="tspan3945">  SYSTEMS</tspan><tspan
         sodipodi:role="line"
         x="81.083984"
         y="950.90027"
         id="tspan3941"
         style="font-size:44px;font-style:normal;font-variant:normal;font-weight:normal;font-stretch:normal;fill:#404040;fill-opacity:1;font-family:Verdana;-inkscape-font-specification:Verdana" /></text>
  </g>
</svg>
